<?xml version="1.0" standalone="no"?>
<!DOCTYPE svg PUBLIC "-//W3C//DTD SVG 20010904//EN"
 "http://www.w3.org/TR/2001/REC-SVG-20010904/DTD/svg10.dtd">
<svg version="1.0" xmlns="http://www.w3.org/2000/svg"
 width="300.000000pt" height="300.000000pt" viewBox="0 0 300.000000 300.000000"
 preserveAspectRatio="xMidYMid meet">
<metadata>
Created by potrace 1.11, written by Peter Selinger 2001-2013
</metadata>
<g transform="translate(0.000000,300.000000) scale(0.100000,-0.100000)"
fill="#000000" stroke="none">
<path d="M0 1500 l0 -1500 1500 0 1500 0 0 1500 0 1500 -1500 0 -1500 0 0
-1500z m1860 407 c0 -2 -109 -201 -243 -443 l-244 -439 -101 -3 c-56 -1 -102
0 -102 2 0 5 408 742 466 844 l25 42 99 0 c55 0 100 -1 100 -3z m-692 -203
l-3 -86 -174 -79 c-96 -44 -176 -81 -178 -82 -1 -2 78 -36 177 -76 l180 -74 0
-83 c0 -61 -3 -84 -12 -83 -7 0 -141 57 -298 127 l-285 128 -3 52 -3 51 288
145 c158 80 294 145 301 145 10 1 12 -20 10 -85z m973 -59 l290 -146 -3 -52
-3 -52 -285 -127 c-157 -70 -291 -127 -297 -127 -10 -1 -13 22 -13 83 l0 84
180 72 c99 40 179 75 177 76 -2 2 -82 39 -178 83 l-174 79 -3 86 c-2 55 1 86
8 86 5 0 141 -65 301 -145z"/>
</g>
</svg>
